<svg viewBox="0 0 64 64">
    <g>
        <path d="m27.998 9.978h8c.007 0 .013-.001.02 0 .552 0 1-.448 1-1 0-.229-.077-.439-.206-.608l-3.919-7.839c-.339-.678-1.45-.678-1.789 0l-4 8c-.155.31-.138.678.044.973.182.294.503.474.85.474zm4-6.764 2.382 4.764h-4.764z"></path>
        <path d="m35.998 53.978h-8c-.347 0-.668.18-.851.474-.182.295-.199.663-.044.973l4 8c.169.339.516.553.894.553.379 0 .725-.214.895-.553l4-8c.155-.31.138-.678-.044-.973-.181-.295-.503-.474-.85-.474zm-4 6.764-2.382-4.764h4.764z"></path>
        <path d="m16.562 14.94c.148.08.311.119.474.119.173 0 .346-.045.5-.134l6.928-4c.3-.173.489-.49.5-.836.01-.346-.159-.673-.449-.864l-7.465-4.928c-.316-.208-.724-.221-1.051-.032-.329.189-.522.548-.499.926l.537 8.928c.021.346.219.657.525.821zm5.5-4.938-4.125 2.382-.32-5.317z"></path>
        <path d="m47.961 49.836c-.021-.346-.219-.656-.524-.82-.305-.165-.674-.158-.974.014l-6.928 4c-.3.173-.489.49-.5.836-.01.346.159.673.448.864l7.463 4.928c.167.11.359.165.551.165h.02c.552 0 1-.448 1-1 0-.089-.012-.176-.034-.258zm-6.025 4.117 4.125-2.382.319 5.316z"></path>
        <path d="m9.247 24.493c.186.281.499.449.835.449h.03c.347-.01.663-.199.837-.5l4-6.928c.173-.3.179-.668.014-.974-.164-.305-.475-.504-.82-.524l-8.931-.536c-.396-.03-.736.17-.926.498-.189.328-.177.735.032 1.051zm3.159-6.578-2.382 4.125-2.935-4.444z"></path>
        <path d="m54.752 39.463c-.191-.29-.515-.46-.864-.449-.347.01-.663.199-.836.5l-4 6.928c-.173.3-.179.668-.015.974.165.305.475.504.821.524l8.928.537c.02.001.04.002.06.002h.01c.575.018 1.01-.444 1.01-1 0-.27-.106-.514-.28-.693zm-3.159 6.577 2.382-4.125 2.934 4.445z"></path>
        <path d="m9 36.977c.183 0 .365-.05.526-.149.295-.183.474-.505.474-.851v-8c0-.347-.18-.668-.474-.851-.295-.182-.663-.198-.973-.044l-8 4c-.339.17-.553.516-.553.895s.214.725.553.895l8 4c.141.07.294.105.447.105zm-1-2.618-4.764-2.381 4.764-2.383z"></path>
        <path d="m63.447 31.083-8-4c-.31-.154-.678-.138-.973.044-.294.181-.474.503-.474.85l-.001 8c0 .347.179.668.474.851.161.099.343.149.526.149.153 0 .306-.035.447-.105l8.001-4c.339-.17.553-.516.553-.895s-.214-.725-.553-.894zm-7.448 3.276.001-4.764 4.764 2.382z"></path>
        <path d="m10.947 39.512c-.173-.3-.49-.489-.837-.5-.335-.008-.673.16-.864.449l-4.928 7.464c-.209.316-.221.723-.032 1.051.18.311.51.5.866.5.02 0 .04 0 .06-.002l8.928-.536c.346-.021.656-.219.821-.524.164-.305.159-.673-.015-.974zm-3.857 6.846 2.934-4.445 2.382 4.125z"></path>
        <path d="m53.052 24.441c.173.3.49.489.836.5h.03c.335 0 .649-.168.834-.449l4.929-7.464c.208-.316.221-.723.032-1.051s-.546-.528-.926-.498l-8.929.536c-.346.021-.656.219-.82.524-.165.305-.159.673.014.974zm3.858-6.847-2.935 4.445-2.382-4.126z"></path>
        <path d="m24.463 53.028-6.928-4c-.299-.172-.668-.179-.974-.014-.306.164-.504.475-.524.82l-.535 8.928c-.023.378.17.737.498.926.155.089.328.134.5.134.192 0 .384-.056.551-.166l7.463-4.928c.289-.191.458-.518.448-.864s-.199-.663-.499-.836zm-6.845 3.858.319-5.316 4.125 2.382z"></path>
        <path d="m39.535 10.924 6.928 4c.154.089.327.134.5.134.163 0 .326-.04.474-.119.305-.164.504-.475.524-.821l.536-8.928c.023-.378-.17-.737-.498-.926s-.735-.177-1.051.032l-7.464 4.928c-.29.191-.459.518-.449.864.011.346.2.662.5.836zm6.846-3.858-.319 5.316-4.125-2.382z"></path>
        <path d="m31.998 11.978c-11.028 0-20 8.972-20 20s8.972 20 20 20 20-8.972 20-20-8.972-20-20-20zm0 38c-9.925 0-18-8.075-18-18s8.075-18 18-18 18 8.075 18 18-8.075 18-18 18z"></path>
    </g>
</svg>